<svg version="1.1" id="Layer_1" xmlns="http://www.w3.org/2000/svg" xmlns:xlink="http://www.w3.org/1999/xlink" x="0px" y="0px"
	 width="100%" viewBox="0 0 499 251" enable-background="new 0 0 499 251" xml:space="preserve">
<path fill="#FEFEFE" opacity="1.000000" stroke="none" 
	d="
M378.000000,252.000000 
	C252.041824,252.000000 126.583664,252.000000 1.062745,252.000000 
	C1.062745,168.403091 1.062745,84.806122 1.062745,1.104576 
	C167.333298,1.104576 333.666626,1.104576 499.979645,1.104576 
	C499.979645,84.749573 499.979645,168.374786 499.979645,252.000000 
	C459.472870,252.000000 418.986420,252.000000 378.000000,252.000000 
M425.981995,40.107185 
	C424.237244,39.683548 422.492676,38.890011 420.747711,38.889099 
	C308.828735,38.830505 196.909729,38.835342 84.990723,38.845352 
	C83.331924,38.845501 81.673141,38.981678 79.123871,38.866909 
	C74.536964,38.179062 76.041672,41.647366 76.039543,43.695644 
	C75.981728,99.324333 75.992249,154.953110 76.003433,210.581863 
	C76.003723,212.028519 76.139481,213.475143 76.213707,214.954742 
	C192.905075,214.954742 309.248871,214.954742 426.004700,214.954742 
	C426.004700,213.127335 426.004700,211.497009 426.004730,209.866669 
	C426.004791,181.386078 426.024414,152.905472 425.999359,124.424896 
	C425.974915,96.613869 425.904785,68.802872 425.981995,40.107185 
z"/>
<path fill="#171342" opacity="1.000000" stroke="none" 
	d="
M425.854736,40.991867 
	C425.904785,68.802872 425.974915,96.613869 425.999359,124.424896 
	C426.024414,152.905472 426.004791,181.386078 426.004730,209.866669 
	C426.004700,211.497009 426.004700,213.127335 426.004700,214.954742 
	C309.248871,214.954742 192.905075,214.954742 76.213707,214.954742 
	C76.139481,213.475143 76.003723,212.028519 76.003433,210.581863 
	C75.992249,154.953110 75.981728,99.324333 76.039543,43.695644 
	C76.041672,41.647366 74.536964,38.179062 79.870163,39.246765 
	C82.597214,39.750725 84.577957,39.983124 86.558731,39.983437 
	C197.390121,40.000870 308.221527,39.993027 419.052887,40.040344 
	C421.320312,40.041313 423.587463,40.660889 425.854736,40.991867 
M301.334290,68.986458 
	C301.334290,68.986458 301.247650,68.933716 301.004150,68.485352 
	C300.559143,68.268990 300.114136,68.052635 299.291229,67.278984 
	C298.531342,66.833755 297.771454,66.388527 296.665833,65.420929 
	C295.266510,64.552261 293.867157,63.683605 292.036255,62.241581 
	C287.028320,59.491428 282.020355,56.741276 276.493713,53.520329 
	C272.954681,52.181683 269.415649,50.843037 265.876587,49.504391 
	C265.713959,49.968666 265.551300,50.432941 265.388672,50.897213 
	C266.919189,51.657059 268.449677,52.416901 270.000275,53.754082 
	C269.997650,54.139191 269.994995,54.524303 269.275299,54.846981 
	C267.982819,54.508881 266.690338,54.170780 265.397858,53.832680 
	C265.342133,54.031078 265.286438,54.229473 265.230743,54.427868 
	C266.885559,55.613422 268.540405,56.798973 270.108246,58.506077 
	C270.073730,58.678913 270.039185,58.851749 269.192871,58.965134 
	C267.453186,58.773991 265.713470,58.582848 263.580902,58.167126 
	C263.048218,57.920635 262.515564,57.674145 261.982880,57.427662 
	C262.060272,57.421112 262.137634,57.414562 262.481903,57.385422 
	C262.897247,57.717041 263.463104,58.168816 264.566132,59.015553 
	C265.370026,59.379486 266.173920,59.743416 266.646057,60.541180 
	C266.123291,60.682125 265.600525,60.823071 264.366058,60.682369 
	C262.548584,60.776844 260.731140,60.871323 258.094910,60.964966 
	C256.325043,60.964966 254.555176,60.964966 252.785294,60.964966 
	C252.779419,61.223606 252.773544,61.482246 252.767670,61.740887 
	C255.788345,62.962418 258.809021,64.183952 262.083740,65.746590 
	C262.336670,65.877625 262.600983,65.978943 262.607056,66.748688 
	C260.190643,66.462868 257.774261,66.177048 255.357849,65.891228 
	C255.289581,66.170776 255.221329,66.450325 255.153061,66.729874 
	C257.788727,67.759338 260.424408,68.788803 263.661682,70.174187 
	C265.743958,71.166237 267.826202,72.158279 269.971558,73.041885 
	C269.971558,73.041885 269.859192,73.097351 270.051697,73.599342 
	C270.355865,73.775772 270.660065,73.952202 270.944946,74.851509 
	C270.945221,75.092560 270.945526,75.333603 270.245911,75.240059 
	C264.025085,72.987701 257.804230,70.735344 251.583389,68.482986 
	C251.492279,68.724258 251.401154,68.965530 251.310043,69.206795 
	C262.877991,74.768318 274.445953,80.329842 286.364166,86.180527 
	C286.364166,86.180527 286.811554,86.259079 286.973663,86.140762 
	C286.973663,86.140762 286.786224,86.212486 287.133057,86.731483 
	C288.068390,87.165459 289.003754,87.599426 290.135651,88.430695 
	C290.135651,88.430695 290.238892,88.861755 289.274506,88.933830 
	C284.784454,88.954636 280.286285,89.147354 275.807129,88.936615 
	C272.751678,88.792847 271.142914,89.688797 269.847473,92.697937 
	C260.718475,113.903511 251.340485,135.001862 242.061340,156.142929 
	C241.428299,157.585251 240.952087,159.096375 240.317657,160.805145 
	C244.747620,160.805145 248.536942,160.805145 253.159164,161.001083 
	C256.255524,160.691345 260.002930,161.396667 262.337494,159.899246 
	C273.496979,152.741379 284.273315,144.986191 295.563904,138.119965 
	C297.906799,144.689423 300.161194,151.292969 302.667694,157.799393 
	C303.165680,159.092056 304.593445,160.915970 305.654083,160.958511 
	C312.694275,161.240784 319.751251,161.104675 327.752228,161.104675 
	C321.929504,148.058258 316.541473,135.985825 311.438293,123.331291 
	C312.601379,121.934456 313.830414,120.586922 314.916870,119.132828 
	C322.092987,109.528244 321.914062,101.366928 314.427582,91.840721 
	C314.096924,91.419960 314.236542,90.629585 314.664795,89.473526 
	C315.269562,86.456604 315.434235,83.590477 311.642731,81.425034 
	C310.760071,80.846031 309.877380,80.267029 309.729004,79.844116 
	C311.503143,80.361038 313.277252,80.877968 315.051392,81.394890 
	C315.249268,81.159302 315.447174,80.923706 315.645050,80.688118 
	C312.723328,78.158051 309.801575,75.627983 306.489227,72.637703 
	C305.670654,72.069168 304.852112,71.500633 303.735382,70.469452 
	C303.130188,70.108070 302.525024,69.746681 301.693756,69.166321 
	C301.693756,69.166321 301.394897,69.067734 301.334290,68.986458 
M329.486664,133.499756 
	C329.486664,142.615845 329.486664,151.731934 329.486664,160.854477 
	C336.279572,160.854477 342.511871,160.854477 349.123962,160.854477 
	C349.123962,153.128372 349.123962,145.712204 349.123962,137.997406 
	C351.469513,137.997406 353.439148,137.997620 355.408783,137.997375 
	C364.673523,137.996216 367.203217,139.812439 370.306213,148.665085 
	C371.456970,151.948242 372.513947,155.272705 373.863586,158.472961 
	C374.309265,159.529678 375.514801,160.985764 376.414581,161.015915 
	C382.917053,161.233841 389.430237,161.132812 397.084473,161.132812 
	C389.459717,151.993240 391.408142,138.562195 379.648407,133.604034 
	C382.628723,131.823669 385.888947,130.419754 388.475311,128.222641 
	C394.664551,122.964928 394.466400,113.437363 387.796906,108.796173 
	C384.086853,106.214394 379.524628,103.529816 375.239136,103.342102 
	C360.188477,102.682854 345.091248,103.086189 329.804840,103.086189 
	C329.871063,102.929886 329.634613,103.229324 329.632660,103.530289 
	C329.570068,113.186684 329.530121,122.843224 329.486664,133.499756 
M152.993484,128.492126 
	C152.993088,132.487091 153.109451,136.486389 152.961166,140.475861 
	C152.795959,144.919861 150.603851,147.806061 146.201797,149.223648 
	C133.508377,153.311295 125.538246,147.693527 125.550110,134.507935 
	C125.559654,123.893402 125.552032,113.278854 125.552032,102.405487 
	C118.780266,102.405487 112.552124,102.405487 105.861641,102.405487 
	C105.861641,114.570045 105.655342,126.515610 105.916275,138.450974 
	C106.211578,151.958832 115.095810,160.742233 128.596268,161.125153 
	C135.915543,161.332779 143.248962,161.310303 150.569824,161.134354 
	C164.526215,160.798874 172.800095,152.449005 172.971390,138.507690 
	C173.106369,127.521507 173.010544,116.532303 172.977997,105.544556 
	C172.974792,104.458466 172.697266,103.373192 172.562271,102.397476 
	C165.944199,102.397476 159.679184,102.397476 152.993484,102.397476 
	C152.993484,110.925308 152.993484,119.209991 152.993484,128.492126 
M221.499969,102.161118 
	C208.112686,102.161118 194.725418,102.161118 181.426666,102.161118 
	C181.426666,106.580353 181.426666,110.183075 181.426666,114.262833 
	C188.924103,114.262833 196.158463,114.262833 203.892838,114.262833 
	C203.892838,130.110382 203.892838,145.478821 203.892838,160.934402 
	C210.142853,160.934402 215.875397,160.934402 222.069275,160.934402 
	C222.069275,145.321335 222.069275,129.945969 222.069275,114.114700 
	C229.574295,114.114700 236.630508,114.114700 243.684448,114.114700 
	C243.684448,109.914772 243.684448,106.189034 243.684448,102.161118 
	C236.416275,102.161118 229.458084,102.161118 221.499969,102.161118 
M284.560211,174.529602 
	C282.769836,169.388992 278.786377,172.614136 275.588745,171.781250 
	C275.588745,175.297272 275.588745,178.369507 275.588745,181.390808 
	C284.251953,182.805847 285.463470,181.911667 284.560211,174.529602 
M360.759766,173.990036 
	C360.759766,176.609146 360.759766,179.228241 360.759766,181.847351 
	C361.275574,181.881485 361.791351,181.915634 362.307159,181.949783 
	C362.677307,180.825546 363.047485,179.701294 363.405396,178.614288 
	C364.169250,179.782974 364.961090,180.994446 366.115540,182.760773 
	C367.249542,180.811249 367.940063,179.624054 368.571716,178.538132 
	C368.968170,179.698288 369.373810,180.885422 369.779480,182.072540 
	C370.375916,181.999847 370.972351,181.927139 371.568787,181.854431 
	C371.568787,179.039429 371.649017,176.220169 371.500580,173.413010 
	C371.471161,172.856659 370.576782,171.926300 370.058594,171.910477 
	C369.207520,171.884476 368.084015,172.239532 367.541534,172.848907 
	C366.889526,173.581253 366.725403,174.747971 366.237427,176.020248 
	C363.808014,171.332367 363.808014,171.332367 360.759766,173.990036 
M294.719788,172.196808 
	C292.309357,172.032608 289.898926,171.868393 287.356628,171.695206 
	C287.356628,175.402313 287.356628,178.475952 287.356628,182.754028 
	C290.612915,181.761215 294.004089,181.642838 295.704834,179.887039 
	C296.839691,178.715469 295.567139,175.211945 294.719788,172.196808 
M334.441772,173.769638 
	C331.493073,172.866882 328.544373,171.964142 325.857239,171.141464 
	C325.857239,175.629196 325.857239,178.753342 325.857239,181.877487 
	C326.260437,181.902100 326.663605,181.926712 327.066803,181.951324 
	C327.562195,180.642365 328.057587,179.333405 328.572906,177.971741 
	C330.644409,179.546539 332.429962,180.903946 333.777283,181.928223 
	C334.103302,178.859192 334.334900,176.678772 334.441772,173.769638 
M120.617020,180.191635 
	C120.743965,179.425735 120.870911,178.659821 121.018707,177.768097 
	C122.849396,179.409027 124.479942,180.870544 126.713669,182.872726 
	C126.713669,178.280090 126.713669,175.029572 126.713669,171.779053 
	C126.404999,171.717957 126.096321,171.656860 125.787651,171.595764 
	C125.124687,172.800476 124.461716,174.005203 123.906326,175.014435 
	C122.074760,173.709930 120.508018,172.594025 118.109161,170.885468 
	C118.109161,174.757141 118.015289,177.391083 118.213821,180.002777 
	C118.242485,180.379715 119.676575,180.649826 120.617020,180.191635 
M168.032745,180.790070 
	C170.784821,182.620102 173.753815,183.165192 175.762436,180.206985 
	C176.389908,179.282883 174.892395,176.915909 174.317413,175.046127 
	C174.237991,175.081528 175.125366,174.685959 176.285934,174.168594 
	C173.842438,170.842346 171.001953,170.505157 168.469864,172.592468 
	C167.687469,173.237442 168.638962,175.985748 168.823074,178.071198 
	C168.693573,178.291641 168.143539,179.227997 168.032745,180.790070 
M156.024872,172.638016 
	C156.024872,175.718765 156.024872,178.799515 156.024872,181.880280 
	C156.546494,181.919037 157.068100,181.957794 157.589722,181.996567 
	C158.169601,180.675461 158.749466,179.354370 159.352676,177.980087 
	C161.386658,179.479248 163.216721,180.828094 164.994232,182.138229 
	C164.994232,179.447510 165.370636,177.505341 164.881042,175.813828 
	C164.450882,174.327530 163.312424,172.504684 162.010971,171.953003 
	C160.479553,171.303848 158.435333,171.864441 156.024872,172.638016 
M149.478943,181.976639 
	C151.005829,181.788467 152.532715,181.600281 154.059601,181.412109 
	C154.013718,181.022659 153.967834,180.633224 153.921951,180.243774 
	C151.950958,179.987427 149.979965,179.731064 148.008972,179.474716 
	C147.989136,179.141266 147.969284,178.807816 147.949448,178.474365 
	C149.743637,177.964539 151.537842,177.454697 153.332031,176.944870 
	C153.329971,176.598679 153.327927,176.252487 153.325867,175.906296 
	C151.607224,175.538742 149.888580,175.171188 148.169952,174.803635 
	C148.180603,174.581238 148.191269,174.358826 148.201935,174.136414 
	C150.099854,173.819397 151.997772,173.502396 153.895676,173.185379 
	C153.860565,172.822891 153.825439,172.460419 153.790329,172.097931 
	C150.957916,172.097931 148.125488,172.097931 145.024109,172.097931 
	C145.024109,174.440460 145.169312,176.608505 144.988129,178.748901 
	C144.750320,181.558167 146.144180,182.261017 149.478943,181.976639 
M233.259155,176.435516 
	C233.089798,174.857315 232.920441,173.279114 232.751083,171.700928 
	C232.318848,171.722183 231.886597,171.743454 231.454361,171.764709 
	C231.157303,173.278168 230.860245,174.791626 230.316422,177.562347 
	C228.620255,174.721329 227.446350,172.755051 226.272446,170.788788 
	C225.898346,171.246994 225.524261,171.705200 225.150177,172.163406 
	C225.150177,175.392487 225.150177,178.621567 225.150177,181.850647 
	C225.547653,181.840302 225.945129,181.829956 226.342606,181.819626 
	C226.656494,180.388809 226.970398,178.958008 227.629379,175.954285 
	C229.283783,178.835419 230.426880,180.826141 231.569992,182.816864 
	C232.064224,182.412415 232.558472,182.007965 233.052719,181.603516 
	C233.121323,180.156708 233.189941,178.709900 233.259155,176.435516 
M388.413025,178.380875 
	C390.296844,179.643753 392.180664,180.906647 394.357605,182.366028 
	C394.357605,178.301407 394.357605,175.057602 394.357605,171.813812 
	C393.955200,171.755630 393.552765,171.697449 393.150360,171.639282 
	C392.688538,173.069031 392.226685,174.498795 391.392212,177.082245 
	C390.126831,174.165741 389.229797,172.098160 388.332733,170.030579 
	C387.689301,170.671051 387.045837,171.311523 386.402405,171.951981 
	C386.402405,175.230911 386.402405,178.509842 386.402405,181.788773 
	C386.751129,181.842270 387.099884,181.895767 387.448608,181.949265 
	C387.730530,181.027634 388.012451,180.106003 388.413025,178.380875 
M304.344086,182.044861 
	C308.575653,180.431900 309.662537,176.063858 306.624268,171.385071 
	C306.260071,172.306686 305.976501,172.954193 305.746216,173.620117 
	C305.025482,175.704178 304.324860,177.795181 303.616425,179.883484 
	C302.952393,177.901245 302.320709,175.907272 301.608093,173.942657 
	C301.329651,173.174911 300.869293,172.473114 300.303833,171.376938 
	C297.769745,178.149872 298.664398,180.795258 304.344086,182.044861 
M355.440796,180.811798 
	C356.247528,180.805893 357.759308,180.825745 357.760620,180.790421 
	C357.869324,177.815216 357.860962,174.835739 357.860962,171.856567 
	C357.532959,171.503403 357.204956,171.150238 356.876953,170.797089 
	C354.380249,177.310791 351.887817,175.683426 349.589355,171.291382 
	C349.589355,175.252182 349.589355,178.584412 349.589355,182.375900 
	C351.216705,180.395248 352.305267,179.070389 353.393829,177.745514 
	C354.035431,178.486298 354.677063,179.227081 355.440796,180.811798 
M344.121765,181.010284 
	C344.924255,181.301270 345.726746,181.592270 347.378204,182.191116 
	C345.977844,178.815552 345.043396,176.231155 343.819550,173.791977 
	C343.388184,172.932220 342.217346,171.870300 341.441315,171.914078 
	C340.626709,171.960037 339.586853,173.081589 339.161163,173.978012 
	C338.005402,176.411636 337.122620,178.974869 336.191864,181.334045 
	C338.900269,180.965118 341.326019,180.634689 344.121765,181.010284 
M265.659882,174.363876 
	C264.730774,176.775391 263.801666,179.186905 262.872559,181.598419 
	C263.155487,182.205307 263.438416,182.812180 263.721313,183.419067 
	C266.727783,176.760132 270.031097,180.851120 274.121429,182.357895 
	C272.531494,178.638550 271.592896,175.717316 270.085968,173.126694 
	C268.646393,170.651810 267.001465,171.178131 265.659882,174.363876 
M244.867569,179.493317 
	C244.042953,178.271301 243.218338,177.049286 242.394089,175.827820 
	C243.468292,174.551651 244.376419,173.472778 245.284546,172.393906 
	C245.086182,172.096313 244.887802,171.798721 244.689423,171.501144 
	C242.851593,172.493149 241.013779,173.485138 239.535919,174.282852 
	C238.860046,173.452011 238.261963,172.627197 237.532486,171.942337 
	C237.448685,171.863663 236.231262,172.550781 236.217896,172.908234 
	C236.106628,175.880951 236.154800,178.859619 236.154800,181.836502 
	C236.700485,181.923508 237.246170,182.010498 237.791855,182.097504 
	C238.495834,180.738983 239.199814,179.380463 240.087036,177.668335 
	C241.245926,179.174942 242.052750,180.417664 243.104202,181.397980 
	C243.277359,181.559418 244.523972,180.569473 244.867569,179.493317 
M381.158142,174.528946 
	C380.189514,173.603470 379.220856,172.677994 378.252228,171.752502 
	C377.468597,172.710175 376.474945,173.565018 375.945282,174.647018 
	C374.857910,176.868393 374.019043,179.211441 373.077881,181.504395 
	C373.324768,181.871033 373.571655,182.237686 373.818542,182.604324 
	C377.021973,178.160049 380.377960,180.083405 384.718292,182.785065 
	C383.219971,179.302017 382.335999,177.247086 381.158142,174.528946 
M109.061134,175.591202 
	C108.932632,174.298813 108.804131,173.006424 108.603119,170.984772 
	C105.732849,174.533218 105.540207,180.218445 108.042274,181.140594 
	C109.991882,181.859116 113.010498,181.590424 114.744576,180.487625 
	C116.829910,179.161453 115.677895,173.313675 112.933464,171.434586 
	C112.933464,173.424698 113.120041,175.051880 112.871338,176.609573 
	C112.689560,177.748062 111.935135,178.795120 111.435982,179.882935 
	C110.642517,178.727264 109.849052,177.571579 109.061134,175.591202 
M221.620453,173.798752 
	C221.137726,173.082642 220.654999,172.366547 220.172287,171.650436 
	C219.049805,173.872925 219.243835,175.687943 218.968918,177.428909 
	C218.828949,178.315399 217.845947,179.068756 217.244049,179.882309 
	C216.543259,179.130203 215.422058,178.472504 215.227600,177.606689 
	C214.798965,175.698044 214.837692,173.684448 214.685715,171.713669 
	C214.077148,171.730270 213.468567,171.746857 212.860001,171.763458 
	C212.860001,174.342285 212.423584,177.034531 213.051422,179.450180 
	C213.347687,180.590042 215.678833,181.852356 217.099350,181.865906 
	C218.526199,181.879501 220.497986,180.733902 221.252228,179.498672 
	C222.001526,178.271561 221.532455,176.300491 221.620453,173.798752 
M188.253830,176.472824 
	C189.180771,175.074402 190.107697,173.675980 191.029755,172.284912 
	C188.349655,172.284912 185.527191,172.284912 183.942978,172.284912 
	C184.965500,175.760193 185.888123,178.895950 186.810745,182.031723 
	C187.217087,181.979553 187.623428,181.927399 188.029755,181.875229 
	C188.103317,180.352402 188.176865,178.829559 188.253830,176.472824 
M248.573837,180.632401 
	C250.983185,180.751450 255.029984,181.718079 255.490494,180.828400 
	C256.797394,178.303558 256.638916,175.020233 257.057434,172.035553 
	C256.306641,171.907959 255.555893,171.780350 254.805115,171.652740 
	C254.390869,174.388260 253.976624,177.123779 253.544937,179.974457 
	C247.873718,179.336761 252.004883,173.592667 248.129684,171.100311 
	C248.129684,174.546204 248.129684,177.210449 248.573837,180.632401 
M142.945724,174.617874 
	C143.019775,173.746262 143.093826,172.874649 143.167877,172.003036 
	C142.393799,172.346283 141.309662,172.480927 140.909454,173.075729 
	C140.046997,174.357498 139.536102,175.875839 138.893661,177.270615 
	C137.450104,175.122986 136.241180,173.324417 135.032272,171.525864 
	C134.605713,171.851624 134.179153,172.177368 133.752594,172.503113 
	C134.070740,173.413681 134.254333,174.403076 134.732803,175.219711 
	C136.050781,177.469177 137.492218,179.646301 138.884811,181.852036 
	C140.155334,179.678070 141.425858,177.504105 142.945724,174.617874 
M207.708511,177.440720 
	C208.533600,175.690857 209.358704,173.941010 210.202347,172.151825 
	C207.678940,172.151825 204.774185,172.151825 203.183945,172.151825 
	C204.099243,175.561462 204.962585,178.777573 205.825928,181.993683 
	C206.207672,182.007690 206.589417,182.021698 206.971161,182.035706 
	C207.218674,180.789124 207.466171,179.542526 207.708511,177.440720 
M312.660889,181.923965 
	C314.772736,181.807892 316.884613,181.691833 318.996460,181.575775 
	C318.984497,181.179398 318.972534,180.783020 318.960602,180.386627 
	C317.314789,180.128799 315.669006,179.870972 314.106079,179.626129 
	C313.684662,176.820435 313.288239,174.181183 312.891815,171.541931 
	C312.155121,171.666504 311.418427,171.791061 310.681763,171.915634 
	C311.038391,175.219025 311.394989,178.522415 312.660889,181.923965 
M195.050781,172.019470 
	C194.363220,172.194550 193.084885,172.345444 193.076584,172.548325 
	C192.949493,175.653687 192.988098,178.765854 192.988098,181.876419 
	C193.728516,181.905197 194.468933,181.933990 195.209351,181.962769 
	C195.339966,178.840164 195.470596,175.717560 195.050781,172.019470 
M253.450089,64.954483 
	C253.314545,64.866188 253.178986,64.777901 253.043442,64.689606 
	C253.123810,64.794998 253.204193,64.900398 253.450089,64.954483 
z"/>
<path fill="#191538" opacity="1.000000" stroke="none" 
	d="
M425.918365,40.549526 
	C423.587463,40.660889 421.320312,40.041313 419.052887,40.040344 
	C308.221527,39.993027 197.390121,40.000870 86.558731,39.983437 
	C84.577957,39.983124 82.597214,39.750725 80.315399,39.340500 
	C81.673141,38.981678 83.331924,38.845501 84.990723,38.845352 
	C196.909729,38.835342 308.828735,38.830505 420.747711,38.889099 
	C422.492676,38.890011 424.237244,39.683548 425.918365,40.549526 
z"/>
<path fill="#FCFCFC" opacity="1.000000" stroke="none" 
	d="
M329.486725,132.999756 
	C329.530121,122.843224 329.570068,113.186684 329.632660,103.530289 
	C329.634613,103.229324 329.871063,102.929886 329.804840,103.086189 
	C345.091248,103.086189 360.188477,102.682854 375.239136,103.342102 
	C379.524628,103.529816 384.086853,106.214394 387.796906,108.796173 
	C394.466400,113.437363 394.664551,122.964928 388.475311,128.222641 
	C385.888947,130.419754 382.628723,131.823669 379.648407,133.604034 
	C391.408142,138.562195 389.459717,151.993240 397.084473,161.132812 
	C389.430237,161.132812 382.917053,161.233841 376.414581,161.015915 
	C375.514801,160.985764 374.309265,159.529678 373.863586,158.472961 
	C372.513947,155.272705 371.456970,151.948242 370.306213,148.665085 
	C367.203217,139.812439 364.673523,137.996216 355.408783,137.997375 
	C353.439148,137.997620 351.469513,137.997406 349.123962,137.997406 
	C349.123962,145.712204 349.123962,153.128372 349.123962,160.854477 
	C342.511871,160.854477 336.279572,160.854477 329.486664,160.854477 
	C329.486664,151.731934 329.486664,142.615845 329.486725,132.999756 
M364.773315,112.305435 
	C359.527802,112.305435 354.282318,112.305435 349.216187,112.305435 
	C349.216187,117.805984 349.216187,122.699715 349.216187,127.781242 
	C354.581451,127.781242 359.597717,128.170578 364.520233,127.658737 
	C368.497589,127.245163 372.522095,125.893890 373.003601,120.776283 
	C373.509247,115.402367 370.096252,113.456200 364.773315,112.305435 
z"/>
<path fill="#FBFBFB" opacity="1.000000" stroke="none" 
	d="
M152.993484,127.993401 
	C152.993484,119.209991 152.993484,110.925308 152.993484,102.397476 
	C159.679184,102.397476 165.944199,102.397476 172.562271,102.397476 
	C172.697266,103.373192 172.974792,104.458466 172.977997,105.544556 
	C173.010544,116.532303 173.106369,127.521507 172.971390,138.507690 
	C172.800095,152.449005 164.526215,160.798874 150.569824,161.134354 
	C143.248962,161.310303 135.915543,161.332779 128.596268,161.125153 
	C115.095810,160.742233 106.211578,151.958832 105.916275,138.450974 
	C105.655342,126.515610 105.861641,114.570045 105.861641,102.405487 
	C112.552124,102.405487 118.780266,102.405487 125.552032,102.405487 
	C125.552032,113.278854 125.559654,123.893402 125.550110,134.507935 
	C125.538246,147.693527 133.508377,153.311295 146.201797,149.223648 
	C150.603851,147.806061 152.795959,144.919861 152.961166,140.475861 
	C153.109451,136.486389 152.993088,132.487091 152.993484,127.993401 
z"/>
<path fill="#E81D25" opacity="1.000000" stroke="none" 
	d="
M252.326263,160.805145 
	C248.536942,160.805145 244.747620,160.805145 240.317657,160.805145 
	C240.952087,159.096375 241.428299,157.585251 242.061340,156.142929 
	C251.340485,135.001862 260.718475,113.903511 269.847473,92.697937 
	C271.142914,89.688797 272.751678,88.792847 275.807129,88.936615 
	C280.286285,89.147354 284.784454,88.954636 290.081543,88.979019 
	C292.877716,90.112473 294.866821,91.200752 297.037537,92.520645 
	C297.774994,92.918594 298.330902,93.084930 298.900848,93.628601 
	C302.147156,102.001839 305.379425,109.997742 308.456726,118.320740 
	C303.249146,122.511703 298.196564,126.375580 292.954987,129.903076 
	C290.111359,122.259308 287.456726,114.951920 284.353668,106.410172 
	C279.641785,118.751022 275.411560,129.830383 270.816864,141.120819 
	C267.068359,141.292114 262.917023,142.425171 260.529022,140.862915 
	C258.397339,139.468353 258.213501,135.096420 256.783173,130.904312 
	C254.584869,136.825134 252.378525,142.087997 250.694489,147.513000 
	C249.284714,152.054581 249.289810,156.682785 252.326263,160.805145 
z"/>
<path fill="#FCFCFC" opacity="1.000000" stroke="none" 
	d="
M221.999924,102.161118 
	C229.458084,102.161118 236.416275,102.161118 243.684448,102.161118 
	C243.684448,106.189034 243.684448,109.914772 243.684448,114.114700 
	C236.630508,114.114700 229.574295,114.114700 222.069275,114.114700 
	C222.069275,129.945969 222.069275,145.321335 222.069275,160.934402 
	C215.875397,160.934402 210.142853,160.934402 203.892838,160.934402 
	C203.892838,145.478821 203.892838,130.110382 203.892838,114.262833 
	C196.158463,114.262833 188.924103,114.262833 181.426666,114.262833 
	C181.426666,110.183075 181.426666,106.580353 181.426666,102.161118 
	C194.725418,102.161118 208.112686,102.161118 221.999924,102.161118 
z"/>
<path fill="#F6E806" opacity="1.000000" stroke="none" 
	d="
M293.143982,130.239456 
	C298.196564,126.375580 303.249146,122.511703 308.712646,118.193359 
	C310.868011,115.769180 312.924316,113.994614 314.300873,111.794708 
	C319.239105,103.902756 316.401825,95.182144 308.068359,91.663467 
	C306.391571,89.888153 304.698730,88.413666 303.002258,86.969727 
	C302.998657,87.000290 303.059326,86.989937 303.119171,86.643066 
	C302.776764,86.085487 302.374481,85.874786 301.959656,85.430023 
	C301.867462,85.057327 301.818604,84.870430 301.699158,84.794342 
	C301.590759,84.725296 301.372620,84.719643 301.259521,84.784653 
	C300.505127,85.218292 299.765991,85.678375 299.080963,85.886353 
	C299.110657,85.084152 299.081299,84.525467 299.018799,83.659424 
	C298.605347,82.731293 298.225067,82.110512 297.763489,81.357025 
	C297.040741,82.436554 296.523468,83.209221 295.914185,83.819290 
	C295.546906,83.763962 295.271637,83.871239 294.752625,83.818298 
	C294.344727,83.110657 294.180511,82.563217 294.286255,81.983795 
	C294.670807,81.351303 294.785400,80.750793 294.900024,80.150284 
	C294.630798,80.114250 294.361603,80.078224 294.092407,80.042191 
	C294.056152,80.689369 294.019867,81.336548 293.707550,82.077316 
	C292.624237,81.450294 291.817017,80.729691 291.277893,79.976067 
	C291.709534,79.290718 291.873016,78.638382 292.036530,77.986038 
	C291.756653,77.933464 291.476776,77.880890 291.196899,77.828323 
	C291.128021,78.548973 291.059113,79.269623 290.720276,80.189934 
	C290.299835,81.260353 290.149292,82.131119 289.740997,83.094002 
	C288.660767,82.457481 287.838318,81.728844 287.262360,80.847679 
	C287.041962,79.851028 286.575043,79.006897 286.108154,78.162766 
	C285.337982,78.814987 284.567810,79.467209 283.459656,80.031212 
	C279.069214,78.004875 275.016724,76.066750 270.964233,74.128624 
	C270.660065,73.952202 270.355865,73.775772 270.271484,73.280991 
	C270.632629,71.966064 270.773956,70.969505 270.915314,69.972939 
	C270.357452,69.970673 269.799561,69.968414 269.241699,69.966148 
	C269.463959,71.027542 269.686218,72.088936 269.908478,73.150330 
	C267.826202,72.158279 265.743958,71.166237 263.566956,69.776138 
	C264.626587,69.281799 265.780945,69.185509 266.935272,69.089218 
	C267.022980,68.796791 267.110657,68.504356 267.198364,68.211922 
	C265.757812,67.491463 264.317261,66.770996 262.876709,66.050529 
	C262.600983,65.978943 262.336670,65.877625 261.992920,65.195221 
	C260.905945,63.417835 259.909821,62.191818 258.913666,60.965797 
	C260.731140,60.871323 262.548584,60.776844 264.933746,61.110291 
	C269.330933,63.508900 273.160400,65.479591 276.792389,67.741180 
	C276.411835,69.720284 276.151398,71.405708 276.090820,73.098282 
	C276.071564,73.637024 276.453735,74.450851 276.889160,74.671730 
	C277.323395,74.892014 278.186188,74.706024 278.628937,74.381462 
	C279.605591,73.665497 280.436188,72.750282 281.109711,72.119331 
	C279.732574,70.564621 278.368378,69.024536 277.390930,67.358734 
	C280.180359,68.501984 282.583069,69.770958 284.985748,71.039932 
	C285.185486,70.744843 285.385223,70.449753 285.584961,70.154663 
	C284.724091,69.386284 283.863220,68.617905 282.862030,67.644798 
	C282.474640,67.187782 282.174622,67.067787 281.492065,67.009346 
	C279.418671,65.967583 277.674927,64.996559 276.268799,63.884140 
	C277.742950,62.465466 278.879456,61.188187 280.314575,60.008320 
	C281.404968,60.773838 282.196747,61.441940 283.001465,62.338692 
	C283.014435,62.567341 283.002869,63.025223 282.753967,63.158009 
	C282.500916,63.917969 282.496765,64.545143 282.492645,65.172318 
	C282.664978,64.787956 282.837311,64.403587 283.277832,64.004074 
	C283.725067,63.992947 283.904083,63.996967 284.054810,64.341431 
	C284.641144,65.648872 285.255768,66.615860 285.870422,67.582855 
	C286.112610,67.419983 286.354828,67.257111 286.597046,67.094231 
	C286.039856,66.065979 285.482635,65.037727 285.111389,63.809448 
	C286.210114,63.743835 287.122894,63.878246 288.233856,64.021561 
	C288.432068,64.030457 288.827972,64.057137 289.030151,64.310272 
	C290.300873,65.493904 291.369415,66.424400 292.437988,67.354897 
	C292.585571,67.195297 292.733185,67.035698 292.880798,66.876099 
	C292.237274,65.591988 291.593781,64.307877 291.330750,62.979477 
	C291.963409,62.895111 292.215607,62.855034 292.467804,62.814949 
	C293.867157,63.683605 295.266510,64.552261 296.739624,65.942078 
	C296.534058,66.943939 296.254669,67.424660 295.737732,67.771347 
	C295.149323,67.363274 294.798431,67.089233 294.447540,66.815201 
	C294.320007,67.047432 294.045319,67.450348 294.087006,67.486282 
	C294.710419,68.023666 295.375580,68.512627 296.254700,69.013107 
	C296.478516,69.013222 296.925659,69.034065 297.060760,69.313248 
	C297.786926,70.412659 298.377991,71.232887 298.979004,72.301979 
	C298.988922,72.550842 298.987152,73.050049 298.717529,73.240570 
	C298.298523,74.287537 298.149139,75.143990 297.999878,76.250076 
	C298.000031,76.499710 297.999481,76.998978 297.679504,76.955353 
	C296.907196,76.273239 296.454834,75.634735 295.996826,74.741905 
	C295.988464,74.318008 295.985779,74.148438 296.001404,73.677399 
	C295.355072,72.885017 294.690399,72.394104 293.903290,71.704178 
	C293.574127,71.259857 293.318085,71.088104 292.991516,70.739594 
	C292.811951,70.222771 292.653625,69.956253 292.495300,69.689735 
	C292.314667,70.117966 292.134064,70.546188 291.624268,70.984375 
	C290.855560,71.007629 290.415985,71.020927 289.721710,71.124733 
	C288.679565,71.215248 287.892120,71.215248 287.104675,71.215248 
	C287.155914,71.640251 287.207123,72.065262 287.258362,72.490265 
	C288.534821,72.333992 289.811310,72.177719 291.319824,72.009995 
	C291.551880,71.998535 292.018097,71.981964 292.260681,71.982910 
	C292.503265,71.983849 292.988068,71.965385 292.991394,72.235916 
	C292.992676,72.686813 292.990570,72.867172 292.723145,73.230148 
	C292.962463,74.268021 293.467041,75.123260 294.216492,75.986122 
	C294.461365,75.993744 294.950409,76.024139 295.015259,76.364563 
	C296.712799,77.798233 298.345520,78.891472 300.215515,79.993942 
	C300.452759,80.003181 300.926910,80.029892 300.960205,80.332047 
	C301.399872,81.206299 301.806244,81.778389 302.212616,82.350479 
	C302.476685,81.898674 302.740784,81.446869 303.091797,80.802322 
	C303.339569,80.366310 303.555634,80.191093 304.150391,80.191040 
	C305.005920,81.530670 305.537933,82.763176 305.994110,84.283699 
	C306.248291,84.757523 306.578247,84.943329 307.078430,85.391312 
	C308.163940,86.087402 309.079224,86.521324 310.253265,87.171280 
	C311.727051,88.262001 312.942078,89.136688 314.157104,90.011383 
	C314.236542,90.629585 314.096924,91.419960 314.427582,91.840721 
	C321.914062,101.366928 322.092987,109.528244 314.916870,119.132828 
	C313.830414,120.586922 312.601379,121.934456 310.982239,123.769592 
	C305.412720,128.619705 300.299316,133.031540 295.185883,137.443359 
	C284.273315,144.986191 273.496979,152.741379 262.337494,159.899246 
	C260.002930,161.396667 256.255524,160.691345 252.742706,160.903107 
	C249.289810,156.682785 249.284714,152.054581 250.694489,147.513000 
	C252.378525,142.087997 254.584869,136.825134 256.783173,130.904312 
	C258.213501,135.096420 258.397339,139.468353 260.529022,140.862915 
	C262.917023,142.425171 267.068359,141.292114 271.182770,141.138260 
	C278.990082,137.376236 286.067047,133.807846 293.143982,130.239456 
M274.204102,67.274254 
	C272.213379,66.465019 270.222656,65.655785 267.127014,64.397408 
	C269.631714,67.328979 271.106354,69.607559 274.204102,67.274254 
M264.799896,64.897392 
	C265.488281,64.866249 266.176666,64.835106 266.865051,64.803955 
	C266.701263,64.399368 266.537506,63.994778 266.373749,63.590191 
	C265.710754,63.909664 265.047791,64.229134 264.799896,64.897392 
M280.617554,76.696510 
	C281.225647,76.892776 281.833710,77.089043 282.441803,77.285316 
	C282.545349,76.860382 282.648926,76.435455 282.752472,76.010521 
	C281.922852,76.097809 281.093262,76.185097 280.617554,76.696510 
M286.350739,74.905281 
	C286.091980,74.550774 285.833252,74.196266 285.574524,73.841766 
	C285.423492,74.186646 285.272461,74.531525 285.121429,74.876396 
	C285.547974,75.055901 285.974487,75.235405 286.350739,74.905281 
M274.028320,71.650276 
	C273.870056,71.909889 273.711792,72.169495 273.553528,72.429100 
	C273.824341,72.524521 274.095123,72.619942 274.365936,72.715370 
	C274.408447,72.328156 274.450958,71.940933 274.028320,71.650276 
z"/>
<path fill="#E91D25" opacity="1.000000" stroke="none" 
	d="
M295.374878,137.781662 
	C300.299316,133.031540 305.412720,128.619705 310.839813,124.060638 
	C316.541473,135.985825 321.929504,148.058258 327.752228,161.104675 
	C319.751251,161.104675 312.694275,161.240784 305.654083,160.958511 
	C304.593445,160.915970 303.165680,159.092056 302.667694,157.799393 
	C300.161194,151.292969 297.906799,144.689423 295.374878,137.781662 
z"/>
<path fill="#E1D40D" opacity="1.000000" stroke="none" 
	d="
M287.015869,81.000198 
	C287.838318,81.728844 288.660767,82.457481 289.741608,83.093483 
	C290.000000,83.000839 289.998779,83.008186 289.997437,83.338928 
	C290.001831,84.110558 290.007568,84.551453 289.785309,85.265366 
	C288.633606,85.763092 287.709900,85.987785 286.786224,86.212479 
	C286.786224,86.212486 286.973663,86.140762 286.893890,86.005585 
	C286.547394,85.877388 286.280640,85.884377 286.013916,85.891373 
	C274.445953,80.329842 262.877991,74.768318 251.310043,69.206795 
	C251.401154,68.965530 251.492279,68.724258 251.583389,68.482986 
	C257.804230,70.735344 264.025085,72.987701 270.835541,75.620941 
	C275.532074,77.972298 279.638977,79.942764 284.091736,81.918640 
	C285.296997,81.616104 286.156433,81.308151 287.015869,81.000198 
z"/>
<path fill="#D4D4DE" opacity="1.000000" stroke="none" 
	d="
M284.432587,174.875946 
	C285.463470,181.911667 284.251953,182.805847 275.588745,181.390808 
	C275.588745,178.369507 275.588745,175.297272 275.588745,171.781250 
	C278.786377,172.614136 282.769836,169.388992 284.432587,174.875946 
z"/>
<path fill="#E5E4EA" opacity="1.000000" stroke="none" 
	d="
M360.771515,173.570435 
	C363.808014,171.332367 363.808014,171.332367 366.237427,176.020248 
	C366.725403,174.747971 366.889526,173.581253 367.541534,172.848907 
	C368.084015,172.239532 369.207520,171.884476 370.058594,171.910477 
	C370.576782,171.926300 371.471161,172.856659 371.500580,173.413010 
	C371.649017,176.220169 371.568787,179.039429 371.568787,181.854431 
	C370.972351,181.927139 370.375916,181.999847 369.779480,182.072540 
	C369.373810,180.885422 368.968170,179.698288 368.571716,178.538132 
	C367.940063,179.624054 367.249542,180.811249 366.115540,182.760773 
	C364.961090,180.994446 364.169250,179.782974 363.405396,178.614288 
	C363.047485,179.701294 362.677307,180.825546 362.307159,181.949783 
	C361.791351,181.915634 361.275574,181.881485 360.759766,181.847351 
	C360.759766,179.228241 360.759766,176.609146 360.771515,173.570435 
z"/>
<path fill="#D9D9E2" opacity="1.000000" stroke="none" 
	d="
M295.045898,172.474426 
	C295.567139,175.211945 296.839691,178.715469 295.704834,179.887039 
	C294.004089,181.642838 290.612915,181.761215 287.356628,182.754028 
	C287.356628,178.475952 287.356628,175.402313 287.356628,171.695206 
	C289.898926,171.868393 292.309357,172.032608 295.045898,172.474426 
z"/>
<path fill="#DBDAE2" opacity="1.000000" stroke="none" 
	d="
M334.504150,174.134003 
	C334.334900,176.678772 334.103302,178.859192 333.777283,181.928223 
	C332.429962,180.903946 330.644409,179.546539 328.572906,177.971741 
	C328.057587,179.333405 327.562195,180.642365 327.066803,181.951324 
	C326.663605,181.926712 326.260437,181.902100 325.857239,181.877487 
	C325.857239,178.753342 325.857239,175.629196 325.857239,171.141464 
	C328.544373,171.964142 331.493073,172.866882 334.504150,174.134003 
z"/>
<path fill="#E1E1E7" opacity="1.000000" stroke="none" 
	d="
M120.538651,180.580505 
	C119.676575,180.649826 118.242485,180.379715 118.213821,180.002777 
	C118.015289,177.391083 118.109161,174.757141 118.109161,170.885468 
	C120.508018,172.594025 122.074760,173.709930 123.906326,175.014435 
	C124.461716,174.005203 125.124687,172.800476 125.787651,171.595764 
	C126.096321,171.656860 126.404999,171.717957 126.713669,171.779053 
	C126.713669,175.029572 126.713669,178.280090 126.713669,182.872726 
	C124.479942,180.870544 122.849396,179.409027 121.018707,177.768097 
	C120.870911,178.659821 120.743965,179.425735 120.538651,180.580505 
z"/>
<path fill="#DBDAE5" opacity="1.000000" stroke="none" 
	d="
M167.813110,180.477203 
	C168.143539,179.227997 168.693573,178.291641 168.823074,178.071198 
	C168.638962,175.985748 167.687469,173.237442 168.469864,172.592468 
	C171.001953,170.505157 173.842438,170.842346 176.285934,174.168594 
	C175.125366,174.685959 174.237991,175.081528 174.317413,175.046127 
	C174.892395,176.915909 176.389908,179.282883 175.762436,180.206985 
	C173.753815,183.165192 170.784821,182.620102 167.813110,180.477203 
z"/>
<path fill="#E7E6ED" opacity="1.000000" stroke="none" 
	d="
M156.319183,172.269241 
	C158.435333,171.864441 160.479553,171.303848 162.010971,171.953003 
	C163.312424,172.504684 164.450882,174.327530 164.881042,175.813828 
	C165.370636,177.505341 164.994232,179.447510 164.994232,182.138229 
	C163.216721,180.828094 161.386658,179.479248 159.352676,177.980087 
	C158.749466,179.354370 158.169601,180.675461 157.589722,181.996567 
	C157.068100,181.957794 156.546494,181.919037 156.024872,181.880280 
	C156.024872,178.799515 156.024872,175.718765 156.319183,172.269241 
z"/>
<path fill="#CDCDD7" opacity="1.000000" stroke="none" 
	d="
M149.022369,181.968842 
	C146.144180,182.261017 144.750320,181.558167 144.988129,178.748901 
	C145.169312,176.608505 145.024109,174.440460 145.024109,172.097931 
	C148.125488,172.097931 150.957916,172.097931 153.790329,172.097931 
	C153.825439,172.460419 153.860565,172.822891 153.895676,173.185379 
	C151.997772,173.502396 150.099854,173.819397 148.201935,174.136414 
	C148.191269,174.358826 148.180603,174.581238 148.169952,174.803635 
	C149.888580,175.171188 151.607224,175.538742 153.325867,175.906296 
	C153.327927,176.252487 153.329971,176.598679 153.332031,176.944870 
	C151.537842,177.454697 149.743637,177.964539 147.949448,178.474365 
	C147.969284,178.807816 147.989136,179.141266 148.008972,179.474716 
	C149.979965,179.731064 151.950958,179.987427 153.921951,180.243774 
	C153.967834,180.633224 154.013718,181.022659 154.059601,181.412109 
	C152.532715,181.600281 151.005829,181.788467 149.022369,181.968842 
z"/>
<path fill="#E0DFE6" opacity="1.000000" stroke="none" 
	d="
M233.258850,176.849304 
	C233.189941,178.709900 233.121323,180.156708 233.052719,181.603516 
	C232.558472,182.007965 232.064224,182.412415 231.569992,182.816864 
	C230.426880,180.826141 229.283783,178.835419 227.629379,175.954285 
	C226.970398,178.958008 226.656494,180.388809 226.342606,181.819626 
	C225.945129,181.829956 225.547653,181.840302 225.150177,181.850647 
	C225.150177,178.621567 225.150177,175.392487 225.150177,172.163406 
	C225.524261,171.705200 225.898346,171.246994 226.272446,170.788788 
	C227.446350,172.755051 228.620255,174.721329 230.316422,177.562347 
	C230.860245,174.791626 231.157303,173.278168 231.454361,171.764709 
	C231.886597,171.743454 232.318848,171.722183 232.751083,171.700928 
	C232.920441,173.279114 233.089798,174.857315 233.258850,176.849304 
z"/>
<path fill="#DFDEE7" opacity="1.000000" stroke="none" 
	d="
M388.353699,178.782623 
	C388.012451,180.106003 387.730530,181.027634 387.448608,181.949265 
	C387.099884,181.895767 386.751129,181.842270 386.402405,181.788773 
	C386.402405,178.509842 386.402405,175.230911 386.402405,171.951981 
	C387.045837,171.311523 387.689301,170.671051 388.332733,170.030579 
	C389.229797,172.098160 390.126831,174.165741 391.392212,177.082245 
	C392.226685,174.498795 392.688538,173.069031 393.150360,171.639282 
	C393.552765,171.697449 393.955200,171.755630 394.357605,171.813812 
	C394.357605,175.057602 394.357605,178.301407 394.357605,182.366028 
	C392.180664,180.906647 390.296844,179.643753 388.353699,178.782623 
z"/>
<path fill="#DFDEE8" opacity="1.000000" stroke="none" 
	d="
M303.926239,182.055008 
	C298.664398,180.795258 297.769745,178.149872 300.303833,171.376938 
	C300.869293,172.473114 301.329651,173.174911 301.608093,173.942657 
	C302.320709,175.907272 302.952393,177.901245 303.616455,179.883484 
	C304.324860,177.795181 305.025482,175.704178 305.746216,173.620117 
	C305.976501,172.954193 306.260071,172.306686 306.624268,171.385071 
	C309.662537,176.063858 308.575653,180.431900 303.926239,182.055008 
z"/>
<path fill="#D6D5DF" opacity="1.000000" stroke="none" 
	d="
M355.379730,180.389832 
	C354.677063,179.227081 354.035431,178.486298 353.393829,177.745514 
	C352.305267,179.070389 351.216705,180.395248 349.589355,182.375900 
	C349.589355,178.584412 349.589355,175.252182 349.589355,171.291382 
	C351.887817,175.683426 354.380249,177.310791 356.876953,170.797089 
	C357.204956,171.150238 357.532959,171.503403 357.860962,171.856567 
	C357.860962,174.835739 357.869324,177.815216 357.760620,180.790421 
	C357.759308,180.825745 356.247528,180.805893 355.379730,180.389832 
z"/>
<path fill="#DFDEE7" opacity="1.000000" stroke="none" 
	d="
M343.936768,180.657288 
	C341.326019,180.634689 338.900269,180.965118 336.191864,181.334045 
	C337.122620,178.974869 338.005402,176.411636 339.161163,173.978012 
	C339.586853,173.081589 340.626709,171.960037 341.441315,171.914078 
	C342.217346,171.870300 343.388184,172.932220 343.819550,173.791977 
	C345.043396,176.231155 345.977844,178.815552 347.378204,182.191116 
	C345.726746,181.592270 344.924255,181.301270 343.936768,180.657288 
z"/>
<path fill="#DEDEE5" opacity="1.000000" stroke="none" 
	d="
M265.794250,174.031830 
	C267.001465,171.178131 268.646393,170.651810 270.085968,173.126694 
	C271.592896,175.717316 272.531494,178.638550 274.121429,182.357895 
	C270.031097,180.851120 266.727783,176.760132 263.721313,183.419067 
	C263.438416,182.812180 263.155487,182.205307 262.872559,181.598419 
	C263.801666,179.186905 264.730774,176.775391 265.794250,174.031830 
z"/>
<path fill="#DFDEE8" opacity="1.000000" stroke="none" 
	d="
M245.071014,179.802490 
	C244.523972,180.569473 243.277359,181.559418 243.104202,181.397980 
	C242.052750,180.417664 241.245926,179.174942 240.087036,177.668335 
	C239.199814,179.380463 238.495834,180.738983 237.791855,182.097504 
	C237.246170,182.010498 236.700485,181.923508 236.154800,181.836502 
	C236.154800,178.859619 236.106628,175.880951 236.217896,172.908234 
	C236.231262,172.550781 237.448685,171.863663 237.532486,171.942337 
	C238.261963,172.627197 238.860046,173.452011 239.535919,174.282852 
	C241.013779,173.485138 242.851593,172.493149 244.689423,171.501144 
	C244.887802,171.798721 245.086182,172.096313 245.284546,172.393906 
	C244.376419,173.472778 243.468292,174.551651 242.394089,175.827820 
	C243.218338,177.049286 244.042953,178.271301 245.071014,179.802490 
z"/>
<path fill="#DBDAE5" opacity="1.000000" stroke="none" 
	d="
M381.305054,174.860550 
	C382.335999,177.247086 383.219971,179.302017 384.718292,182.785065 
	C380.377960,180.083405 377.021973,178.160049 373.818542,182.604324 
	C373.571655,182.237686 373.324768,181.871033 373.077881,181.504395 
	C374.019043,179.211441 374.857910,176.868393 375.945282,174.647018 
	C376.474945,173.565018 377.468597,172.710175 378.252228,171.752502 
	C379.220856,172.677994 380.189514,173.603470 381.305054,174.860550 
z"/>
<path fill="#DDDDE4" opacity="1.000000" stroke="none" 
	d="
M109.058357,176.003555 
	C109.849052,177.571579 110.642517,178.727264 111.435974,179.882935 
	C111.935135,178.795120 112.689560,177.748062 112.871338,176.609573 
	C113.120041,175.051880 112.933464,173.424698 112.933464,171.434586 
	C115.677895,173.313675 116.829910,179.161453 114.744576,180.487625 
	C113.010498,181.590424 109.991882,181.859116 108.042274,181.140594 
	C105.540207,180.218445 105.732849,174.533218 108.603119,170.984772 
	C108.804131,173.006424 108.932632,174.298813 109.058357,176.003555 
z"/>
<path fill="#E1E1E7" opacity="1.000000" stroke="none" 
	d="
M221.609070,174.227203 
	C221.532455,176.300491 222.001526,178.271561 221.252228,179.498672 
	C220.497986,180.733902 218.526199,181.879501 217.099350,181.865906 
	C215.678833,181.852356 213.347687,180.590042 213.051422,179.450180 
	C212.423584,177.034531 212.860001,174.342285 212.860001,171.763458 
	C213.468567,171.746857 214.077148,171.730270 214.685715,171.713669 
	C214.837692,173.684448 214.798965,175.698044 215.227600,177.606689 
	C215.422058,178.472504 216.543259,179.130203 217.244049,179.882294 
	C217.845947,179.068756 218.828949,178.315399 218.968918,177.428909 
	C219.243835,175.687943 219.049805,173.872925 220.172287,171.650436 
	C220.654999,172.366547 221.137726,173.082642 221.609070,174.227203 
z"/>
<path fill="#E0DFE6" opacity="1.000000" stroke="none" 
	d="
M188.252136,176.889771 
	C188.176865,178.829559 188.103317,180.352402 188.029755,181.875229 
	C187.623428,181.927399 187.217087,181.979553 186.810745,182.031723 
	C185.888123,178.895950 184.965500,175.760193 183.942978,172.284912 
	C185.527191,172.284912 188.349655,172.284912 191.029755,172.284912 
	C190.107697,173.675980 189.180771,175.074402 188.252136,176.889771 
z"/>
<path fill="#E5E5EB" opacity="1.000000" stroke="none" 
	d="
M248.351761,180.253555 
	C248.129684,177.210449 248.129684,174.546204 248.129684,171.100311 
	C252.004883,173.592667 247.873718,179.336761 253.544937,179.974457 
	C253.976624,177.123779 254.390869,174.388260 254.805115,171.652740 
	C255.555893,171.780350 256.306641,171.907959 257.057434,172.035553 
	C256.638916,175.020233 256.797394,178.303558 255.490494,180.828400 
	C255.029984,181.718079 250.983185,180.751450 248.351761,180.253555 
z"/>
<path fill="#E4E4EC" opacity="1.000000" stroke="none" 
	d="
M142.821045,174.973999 
	C141.425858,177.504105 140.155334,179.678070 138.884811,181.852036 
	C137.492218,179.646301 136.050781,177.469177 134.732803,175.219711 
	C134.254333,174.403076 134.070740,173.413681 133.752594,172.503113 
	C134.179153,172.177368 134.605713,171.851624 135.032272,171.525864 
	C136.241180,173.324417 137.450104,175.122986 138.893661,177.270615 
	C139.536102,175.875839 140.046997,174.357498 140.909454,173.075729 
	C141.309662,172.480927 142.393799,172.346283 143.167877,172.003036 
	C143.093826,172.874649 143.019775,173.746262 142.821045,174.973999 
z"/>
<path fill="#D4D4DE" opacity="1.000000" stroke="none" 
	d="
M207.711090,177.868332 
	C207.466171,179.542526 207.218674,180.789124 206.971161,182.035706 
	C206.589417,182.021698 206.207672,182.007690 205.825928,181.993683 
	C204.962585,178.777573 204.099243,175.561462 203.183945,172.151825 
	C204.774185,172.151825 207.678940,172.151825 210.202347,172.151825 
	C209.358704,173.941010 208.533600,175.690857 207.711090,177.868332 
z"/>
<path fill="#DAD9E3" opacity="1.000000" stroke="none" 
	d="
M312.206238,181.874893 
	C311.394989,178.522415 311.038391,175.219025 310.681763,171.915634 
	C311.418427,171.791061 312.155121,171.666504 312.891815,171.541931 
	C313.288239,174.181183 313.684662,176.820435 314.106079,179.626129 
	C315.669006,179.870972 317.314789,180.128799 318.960602,180.386627 
	C318.972534,180.783020 318.984497,181.179398 318.996460,181.575775 
	C316.884613,181.691833 314.772736,181.807892 312.206238,181.874893 
z"/>
<path fill="#EAE309" opacity="1.000000" stroke="none" 
	d="
M288.827972,64.057137 
	C288.827972,64.057137 288.432068,64.030457 288.128418,63.763588 
	C286.672729,62.678242 285.520721,61.859764 284.242676,60.699173 
	C281.078705,58.567913 278.040802,56.778759 275.168427,54.742691 
	C275.893433,54.327557 276.452942,54.159332 277.012421,53.991112 
	C282.020355,56.741276 287.028320,59.491428 292.252014,62.528267 
	C292.215607,62.855034 291.963409,62.895111 291.019653,62.996971 
	C289.828064,63.391548 289.328003,63.724339 288.827972,64.057137 
z"/>
<path fill="#3B3036" opacity="1.000000" stroke="none" 
	d="
M276.989899,67.450272 
	C273.160400,65.479591 269.330933,63.508900 265.289612,61.251114 
	C265.600525,60.823071 266.123291,60.682125 267.063019,60.283966 
	C267.649384,60.019650 267.818756,60.012547 268.200684,60.265694 
	C270.257568,61.362606 272.101898,62.199272 274.128357,63.262520 
	C274.850677,63.667919 275.390930,63.846733 275.931152,64.025543 
	C277.674927,64.996559 279.418671,65.967583 281.618530,67.229347 
	C282.383881,67.629906 282.693115,67.739716 283.002350,67.849525 
	C283.863220,68.617905 284.724091,69.386284 285.584961,70.154663 
	C285.385223,70.449753 285.185486,70.744843 284.985748,71.039932 
	C282.583069,69.770958 280.180359,68.501984 277.351257,67.370010 
	C276.924896,67.506996 276.989899,67.450272 276.989899,67.450272 
z"/>
<path fill="#CFC611" opacity="1.000000" stroke="none" 
	d="
M306.879852,73.097916 
	C309.801575,75.627983 312.723328,78.158051 315.645050,80.688118 
	C315.447174,80.923706 315.249268,81.159302 315.051392,81.394890 
	C313.277252,80.877968 311.503143,80.361038 309.249756,79.497299 
	C308.210571,79.158905 307.650604,79.167320 307.039490,78.826859 
	C306.860443,76.759941 306.732574,75.041901 306.673950,73.267868 
	C306.743134,73.211876 306.879852,73.097908 306.879852,73.097916 
z"/>
<path fill="#D6D5DF" opacity="1.000000" stroke="none" 
	d="
M195.326004,172.307220 
	C195.470596,175.717560 195.339966,178.840164 195.209351,181.962769 
	C194.468933,181.933990 193.728516,181.905197 192.988098,181.876419 
	C192.988098,178.765854 192.949493,175.653687 193.076584,172.548325 
	C193.084885,172.345444 194.363220,172.194550 195.326004,172.307220 
z"/>
<path fill="#423B30" opacity="1.000000" stroke="none" 
	d="
M283.745880,81.913231 
	C279.638977,79.942764 275.532074,77.972298 271.185486,75.788239 
	C270.945526,75.333603 270.945221,75.092560 270.954590,74.490067 
	C275.016724,76.066750 279.069214,78.004875 283.493347,80.330170 
	C283.825287,81.115974 283.785583,81.514603 283.745880,81.913231 
z"/>
<path fill="#30233A" opacity="1.000000" stroke="none" 
	d="
M275.002899,54.989605 
	C278.040802,56.778759 281.078705,58.567913 284.061707,60.937878 
	C283.667389,61.715809 283.327972,61.912930 282.988525,62.110046 
	C282.196747,61.441940 281.404968,60.773838 280.145081,59.770054 
	C279.128113,59.264885 278.579254,59.095390 277.840179,58.706291 
	C277.103149,58.320187 276.556366,58.153687 275.776184,57.740234 
	C273.692657,56.631996 271.842529,55.770706 269.992371,54.909416 
	C269.994995,54.524303 269.997650,54.139191 270.329407,53.452919 
	C272.106689,53.764374 273.554779,54.376991 275.002899,54.989605 
z"/>
<path fill="#E4DA0B" opacity="1.000000" stroke="none" 
	d="
M262.741882,66.399612 
	C264.317261,66.770996 265.757812,67.491463 267.198364,68.211922 
	C267.110657,68.504356 267.022980,68.796791 266.935272,69.089218 
	C265.780945,69.185509 264.626587,69.281799 263.266174,69.598175 
	C260.424408,68.788803 257.788727,67.759338 255.153061,66.729874 
	C255.221329,66.450325 255.289581,66.170776 255.357849,65.891228 
	C257.774261,66.177048 260.190643,66.462868 262.741882,66.399612 
z"/>
<path fill="#EAE309" opacity="1.000000" stroke="none" 
	d="
M269.633850,54.878197 
	C271.842529,55.770706 273.692657,56.631996 275.773132,58.049637 
	C276.022095,59.016399 276.040741,59.426819 275.722656,59.881443 
	C274.934143,59.954292 274.482391,59.982941 273.794128,60.012234 
	C273.557587,60.012882 273.085052,60.036163 272.945129,59.754959 
	C271.935211,58.977345 271.065216,58.480934 270.195251,57.984524 
	C268.540405,56.798973 266.885559,55.613422 265.230743,54.427868 
	C265.286438,54.229473 265.342133,54.031078 265.397858,53.832680 
	C266.690338,54.170780 267.982819,54.508881 269.633850,54.878197 
z"/>
<path fill="#DFD70D" opacity="1.000000" stroke="none" 
	d="
M275.168427,54.742691 
	C273.554779,54.376991 272.106689,53.764374 270.319397,53.164249 
	C268.449677,52.416901 266.919189,51.657059 265.388672,50.897213 
	C265.551300,50.432941 265.713959,49.968666 265.876587,49.504391 
	C269.415649,50.843037 272.954681,52.181683 276.753052,53.755718 
	C276.452942,54.159332 275.893433,54.327557 275.168427,54.742691 
z"/>
<path fill="#E4DA0B" opacity="1.000000" stroke="none" 
	d="
M258.504272,60.965382 
	C259.909821,62.191818 260.905945,63.417835 261.865906,65.024673 
	C258.809021,64.183952 255.788345,62.962418 252.767670,61.740887 
	C252.773544,61.482246 252.779419,61.223606 252.785294,60.964966 
	C254.555176,60.964966 256.325043,60.964966 258.504272,60.965382 
z"/>
<path fill="#423B30" opacity="1.000000" stroke="none" 
	d="
M307.090637,79.175735 
	C307.650604,79.167320 308.210571,79.158905 308.882629,79.419258 
	C309.877380,80.267029 310.760071,80.846031 311.812897,81.722672 
	C311.983063,82.020302 311.889496,82.111198 311.616486,82.115158 
	C310.043854,82.770737 308.744263,83.422348 307.100830,84.056351 
	C306.528015,84.024391 306.298950,84.010033 306.069916,83.995682 
	C305.537933,82.763176 305.005920,81.530670 304.102631,79.896942 
	C303.564758,78.889442 303.398224,78.283173 303.248016,77.736420 
	C304.718262,78.287117 305.904449,78.731430 307.090637,79.175735 
z"/>
<path fill="#E4DA0B" opacity="1.000000" stroke="none" 
	d="
M286.959656,86.471985 
	C287.709900,85.987785 288.633606,85.763092 290.009399,85.120491 
	C290.307281,84.137787 290.153015,83.572990 289.998779,83.008186 
	C289.998779,83.008186 290.000000,83.000839 289.999390,83.001358 
	C290.149292,82.131119 290.299835,81.260353 290.725159,80.194763 
	C291.000000,79.999924 291.009766,80.009079 291.009766,80.009079 
	C291.817017,80.729691 292.624237,81.450294 293.715759,82.085373 
	C294.000000,81.999847 294.016327,82.015785 294.016327,82.015785 
	C294.180511,82.563217 294.344727,83.110657 294.630310,84.118347 
	C294.495422,85.389778 294.239105,86.200958 293.753113,86.867828 
	C292.328644,87.160149 291.133881,87.596779 289.939087,88.033401 
	C289.003754,87.599426 288.068390,87.165459 286.959656,86.471985 
z"/>
<path fill="#423B30" opacity="1.000000" stroke="none" 
	d="
M314.410950,89.742455 
	C312.942078,89.136688 311.727051,88.262001 310.428314,86.880997 
	C310.859589,84.953522 311.374542,83.532364 311.889496,82.111198 
	C311.889496,82.111198 311.983063,82.020302 312.031494,81.975243 
	C315.434235,83.590477 315.269562,86.456604 314.410950,89.742455 
z"/>
<path fill="#E1D40D" opacity="1.000000" stroke="none" 
	d="
M290.037354,88.232056 
	C291.133881,87.596779 292.328644,87.160149 293.925598,87.109238 
	C294.883514,87.665970 295.439331,87.836983 296.123169,88.283569 
	C296.452789,89.802429 296.654388,91.045731 296.855957,92.289032 
	C294.866821,91.200752 292.877716,90.112473 290.563721,88.942978 
	C290.238892,88.861755 290.135651,88.430695 290.037354,88.232056 
z"/>
<path fill="#DFD70D" opacity="1.000000" stroke="none" 
	d="
M298.969055,72.053116 
	C298.377991,71.232887 297.786926,70.412659 297.318054,69.022446 
	C298.183228,68.247063 298.926178,68.041664 299.669128,67.836266 
	C300.114136,68.052635 300.559143,68.268990 300.931335,68.813690 
	C301.037323,69.117264 301.216095,69.092499 301.394897,69.067734 
	C301.394897,69.067734 301.693756,69.166321 301.531342,69.660812 
	C301.246460,70.764526 301.124023,71.373764 301.000793,71.991737 
	C301.000000,72.000473 300.982452,72.001060 300.647095,72.006569 
	C299.864166,72.025757 299.416595,72.039436 298.969055,72.053116 
z"/>
<path fill="#CFC611" opacity="1.000000" stroke="none" 
	d="
M304.033539,70.932091 
	C304.852112,71.500633 305.670654,72.069168 306.684540,72.867805 
	C306.879852,73.097908 306.743134,73.211876 306.365814,73.240089 
	C303.696014,75.310074 301.749023,75.987160 300.982452,72.001060 
	C300.982452,72.001060 301.000000,72.000473 301.265198,72.089157 
	C302.364777,71.762589 303.199158,71.347343 304.033539,70.932091 
z"/>
<path fill="#EAE309" opacity="1.000000" stroke="none" 
	d="
M267.988159,60.005447 
	C267.818756,60.012547 267.649384,60.019650 267.228882,60.067047 
	C266.173920,59.743416 265.370026,59.379486 264.300293,58.756870 
	C264.034424,58.498188 263.973785,58.391705 263.973785,58.391705 
	C265.713470,58.582848 267.453186,58.773991 269.589569,59.240074 
	C269.986267,59.515011 269.991730,60.005760 269.657867,60.005669 
	C268.878723,60.005539 268.433441,60.005493 267.988159,60.005447 
z"/>
<path fill="#EAE309" opacity="1.000000" stroke="none" 
	d="
M303.884460,70.700775 
	C303.199158,71.347343 302.364777,71.762589 301.265991,72.080414 
	C301.124023,71.373764 301.246460,70.764526 301.644379,69.770294 
	C302.525024,69.746681 303.130188,70.108070 303.884460,70.700775 
z"/>
<path fill="#DCD50D" opacity="1.000000" stroke="none" 
	d="
M269.991730,60.005760 
	C269.991730,60.005760 269.986267,59.515011 269.995453,59.269798 
	C270.039185,58.851749 270.073730,58.678913 270.151733,58.245300 
	C271.065216,58.480934 271.935211,58.977345 272.752502,59.949928 
	C271.797119,60.285988 270.894409,60.145874 269.991730,60.005760 
z"/>
<path fill="#DCD50D" opacity="1.000000" stroke="none" 
	d="
M263.777344,58.279415 
	C263.973785,58.391705 264.034424,58.498188 264.031677,58.559391 
	C263.463104,58.168816 262.897247,57.717041 262.481903,57.385422 
	C262.137634,57.414562 262.060272,57.421112 261.982880,57.427658 
	C262.515564,57.674145 263.048218,57.920635 263.777344,58.279415 
z"/>
<path fill="#EAE309" opacity="1.000000" stroke="none" 
	d="
M299.480164,67.557617 
	C298.926178,68.041664 298.183228,68.247063 297.182983,68.743271 
	C296.925659,69.034065 296.478516,69.013222 296.246826,68.735825 
	C296.001862,68.274078 295.988556,68.089737 295.975281,67.905380 
	C296.254669,67.424660 296.534058,66.943939 296.912506,66.203262 
	C297.771454,66.388527 298.531342,66.833755 299.480164,67.557617 
z"/>
<path fill="#E4DA0B" opacity="1.000000" stroke="none" 
	d="
M253.367325,64.980133 
	C253.204193,64.900398 253.123810,64.794998 253.043442,64.689606 
	C253.178986,64.777901 253.314545,64.866188 253.367325,64.980133 
z"/>
<path fill="#E4DA0B" opacity="1.000000" stroke="none" 
	d="
M286.189026,86.035950 
	C286.280640,85.884377 286.547394,85.877388 286.812836,86.064743 
	C286.811554,86.259079 286.364166,86.180527 286.189026,86.035950 
z"/>
<path fill="#EAE309" opacity="1.000000" stroke="none" 
	d="
M301.364594,69.027092 
	C301.216095,69.092499 301.037323,69.117264 301.053101,69.037872 
	C301.247650,68.933716 301.334290,68.986458 301.364594,69.027092 
z"/>
<path fill="#1E1946" opacity="1.000000" stroke="none" 
	d="
M365.188690,112.410934 
	C370.096252,113.456200 373.509247,115.402367 373.003601,120.776283 
	C372.522095,125.893890 368.497589,127.245163 364.520233,127.658737 
	C359.597717,128.170578 354.581451,127.781242 349.216187,127.781242 
	C349.216187,122.699715 349.216187,117.805984 349.216187,112.305435 
	C354.282318,112.305435 359.527802,112.305435 365.188690,112.410934 
z"/>
<path fill="#1F143F" opacity="1.000000" stroke="none" 
	d="
M292.954987,129.903076 
	C286.067047,133.807846 278.990082,137.376236 271.547241,140.927200 
	C275.411560,129.830383 279.641785,118.751022 284.353668,106.410172 
	C287.456726,114.951920 290.111359,122.259308 292.954987,129.903076 
z"/>
<path fill="#21183E" opacity="1.000000" stroke="none" 
	d="
M308.052368,91.964294 
	C316.401825,95.182144 319.239105,103.902756 314.300873,111.794708 
	C312.924316,113.994614 310.868011,115.769180 308.867615,117.866264 
	C305.379425,109.997742 302.147156,102.001839 299.245697,93.607254 
	C300.372772,92.843361 301.169006,92.478142 302.055054,92.354156 
	C302.409119,92.812843 302.673340,93.030289 302.792480,93.519341 
	C302.489441,94.614471 302.331543,95.437988 302.173615,96.261513 
	C302.485901,96.398132 302.798187,96.534752 303.110474,96.671371 
	C303.784332,95.410004 304.458160,94.148628 305.190857,92.700485 
	C305.400543,92.270401 305.619110,92.145592 306.265869,92.178940 
	C307.101654,92.133842 307.577026,92.049072 308.052368,91.964294 
z"/>
<path fill="#E4DA0B" opacity="1.000000" stroke="none" 
	d="
M301.965271,92.112915 
	C301.169006,92.478142 300.372772,92.843361 299.231659,93.229927 
	C298.330902,93.084930 297.774994,92.918594 297.037537,92.520645 
	C296.654388,91.045731 296.452789,89.802429 296.124756,87.881012 
	C296.000946,86.129227 296.003540,85.055557 296.006165,83.981888 
	C296.523468,83.209221 297.040741,82.436554 297.763489,81.357025 
	C298.225067,82.110512 298.605347,82.731293 298.759949,83.844261 
	C298.697021,85.228745 298.859741,86.121033 299.115051,87.243637 
	C299.620148,87.985298 300.032684,88.496651 300.622681,89.268555 
	C301.209381,89.997574 301.618622,90.466034 302.013184,91.229156 
	C301.987396,91.720177 301.976349,91.916542 301.965271,92.112915 
z"/>
<path fill="#EAE309" opacity="1.000000" stroke="none" 
	d="
M300.647095,72.006569 
	C301.749023,75.987160 303.696014,75.310074 306.296631,73.296082 
	C306.732574,75.041901 306.860443,76.759941 307.039490,78.826859 
	C305.904449,78.731430 304.718262,78.287117 303.248016,77.736420 
	C303.398224,78.283173 303.564758,78.889442 303.779114,79.789825 
	C303.555634,80.191093 303.339569,80.366310 302.873566,80.689407 
	C302.021240,80.522781 301.474091,80.276337 300.926910,80.029892 
	C300.926910,80.029892 300.452759,80.003181 300.096283,79.699486 
	C299.493195,78.597206 299.246552,77.798630 298.999969,77.000023 
	C299.000000,77.000000 299.002441,76.997879 299.251984,76.977341 
	C299.767029,76.801521 300.032501,76.646233 300.298004,76.490944 
	C299.866364,76.328384 299.434753,76.165825 299.001556,76.001633 
	C299.000000,76.000000 298.999908,75.999901 299.009216,75.630600 
	C299.008026,74.524223 298.997589,73.787132 298.987152,73.050049 
	C298.987152,73.050049 298.988922,72.550842 298.979004,72.301987 
	C299.416595,72.039436 299.864166,72.025757 300.647095,72.006569 
z"/>
<path fill="#DCD50D" opacity="1.000000" stroke="none" 
	d="
M274.030640,60.011585 
	C274.482391,59.982941 274.934143,59.954292 275.966919,59.991180 
	C277.042084,59.679775 277.536255,59.302837 278.030396,58.925896 
	C278.579254,59.095390 279.128113,59.264885 279.846466,59.672642 
	C278.879456,61.188187 277.742950,62.465466 276.268799,63.884144 
	C275.390930,63.846733 274.850677,63.667919 274.331421,63.086357 
	C274.245148,61.792938 274.137878,60.902264 274.030640,60.011585 
z"/>
<path fill="#E4DA0B" opacity="1.000000" stroke="none" 
	d="
M276.964539,67.495728 
	C278.368378,69.024536 279.732574,70.564621 281.109711,72.119331 
	C280.436188,72.750282 279.605591,73.665497 278.628937,74.381462 
	C278.186188,74.706024 277.323395,74.892014 276.889160,74.671730 
	C276.453735,74.450851 276.071564,73.637024 276.090820,73.098282 
	C276.151398,71.405708 276.411835,69.720284 276.792389,67.741180 
	C276.989899,67.450272 276.924896,67.506996 276.964539,67.495728 
z"/>
<path fill="#171342" opacity="1.000000" stroke="none" 
	d="
M311.616486,82.115158 
	C311.374542,83.532364 310.859589,84.953522 310.169556,86.664963 
	C309.079224,86.521324 308.163940,86.087402 307.196411,85.119293 
	C307.244293,84.414734 307.344452,84.244347 307.444641,84.073952 
	C308.744263,83.422348 310.043854,82.770737 311.616486,82.115158 
z"/>
<path fill="#CFC611" opacity="1.000000" stroke="none" 
	d="
M300.445221,89.008003 
	C300.032684,88.496651 299.620148,87.985298 299.115906,87.022659 
	C299.024200,86.571381 299.021881,86.129875 299.021881,86.129868 
	C299.765991,85.678375 300.505127,85.218292 301.259521,84.784653 
	C301.372620,84.719643 301.590759,84.725296 301.699158,84.794342 
	C301.818604,84.870430 301.867462,85.057327 301.939148,85.777748 
	C302.307281,86.569672 302.683289,86.779808 303.059326,86.989937 
	C303.059326,86.989937 302.998657,87.000290 303.077026,87.337967 
	C303.898102,88.869919 304.640839,90.064201 305.039642,91.012573 
	C303.278900,90.180450 301.862061,89.594223 300.445221,89.008003 
z"/>
<path fill="#E4DA0B" opacity="1.000000" stroke="none" 
	d="
M274.297241,67.543808 
	C271.106354,69.607559 269.631714,67.328979 267.127014,64.397408 
	C270.222656,65.655785 272.213379,66.465019 274.297241,67.543808 
z"/>
<path fill="#534531" opacity="1.000000" stroke="none" 
	d="
M305.383545,91.258476 
	C304.640839,90.064201 303.898102,88.869919 303.080627,87.307404 
	C304.698730,88.413666 306.391571,89.888153 308.068359,91.663475 
	C307.577026,92.049072 307.101654,92.133842 306.226379,92.002823 
	C305.745361,91.554962 305.597748,91.378777 305.383545,91.258476 
z"/>
<path fill="#E4DA0B" opacity="1.000000" stroke="none" 
	d="
M284.091736,81.918640 
	C283.785583,81.514603 283.825287,81.115974 283.831299,80.418381 
	C284.567810,79.467209 285.337982,78.814987 286.108154,78.162766 
	C286.575043,79.006897 287.041962,79.851028 287.262360,80.847687 
	C286.156433,81.308151 285.296997,81.616104 284.091736,81.918640 
z"/>
<path fill="#DFD70D" opacity="1.000000" stroke="none" 
	d="
M283.001465,62.338696 
	C283.327972,61.912930 283.667389,61.715809 284.187775,61.279984 
	C285.520721,61.859764 286.672729,62.678242 287.930176,63.754688 
	C287.122894,63.878246 286.210114,63.743835 284.901245,63.806763 
	C284.505127,64.004097 284.083130,64.000984 284.083130,64.000984 
	C283.904083,63.996967 283.725067,63.992947 283.275269,63.755478 
	C283.004517,63.522030 283.002869,63.025223 283.002869,63.025223 
	C283.002869,63.025223 283.014435,62.567341 283.001465,62.338696 
z"/>
<path fill="#DFD70D" opacity="1.000000" stroke="none" 
	d="
M289.030151,64.310272 
	C289.328003,63.724339 289.828064,63.391548 290.639160,63.041260 
	C291.593781,64.307877 292.237274,65.591988 292.880798,66.876099 
	C292.733185,67.035698 292.585571,67.195297 292.437988,67.354897 
	C291.369415,66.424400 290.300873,65.493904 289.030151,64.310272 
z"/>
<path fill="#DCD50D" opacity="1.000000" stroke="none" 
	d="
M298.999939,77.000046 
	C299.246552,77.798630 299.493195,78.597206 299.859009,79.690247 
	C298.345520,78.891472 296.712799,77.798233 295.130371,76.136871 
	C295.454590,75.377899 295.728546,75.187057 296.002502,74.996231 
	C296.454834,75.634735 296.907196,76.273239 297.929749,76.955757 
	C298.499969,76.999779 298.999939,77.000046 298.999939,77.000046 
z"/>
<path fill="#EAE309" opacity="1.000000" stroke="none" 
	d="
M295.996826,74.741898 
	C295.728546,75.187057 295.454590,75.377899 295.065521,75.796440 
	C294.950409,76.024139 294.461365,75.993744 294.103821,75.694183 
	C293.493683,74.612267 293.241058,73.829895 292.988434,73.047531 
	C292.990570,72.867172 292.992676,72.686813 292.997498,71.992233 
	C293.000275,71.478020 293.012695,70.989891 293.012695,70.989891 
	C293.318085,71.088104 293.574127,71.259857 293.981873,71.995911 
	C294.782959,72.984070 295.383026,73.481468 295.983093,73.978867 
	C295.985779,74.148438 295.988464,74.318008 295.996826,74.741898 
z"/>
<path fill="#E4DC0B" opacity="1.000000" stroke="none" 
	d="
M269.940002,73.096107 
	C269.686218,72.088936 269.463959,71.027542 269.241699,69.966148 
	C269.799561,69.968414 270.357452,69.970673 270.915314,69.972939 
	C270.773956,70.969505 270.632629,71.966064 270.175232,73.029991 
	C269.859192,73.097351 269.971558,73.041885 269.940002,73.096107 
z"/>
<path fill="#E4DC0B" opacity="1.000000" stroke="none" 
	d="
M295.914185,83.819290 
	C296.003540,85.055557 296.000946,86.129227 295.996704,87.605446 
	C295.439331,87.836983 294.883514,87.665970 294.155273,87.253548 
	C294.239105,86.200958 294.495422,85.389778 294.874054,84.278549 
	C295.271637,83.871239 295.546906,83.763962 295.914185,83.819290 
z"/>
<path fill="#DCD50D" opacity="1.000000" stroke="none" 
	d="
M291.087769,72.021454 
	C289.811310,72.177719 288.534821,72.333992 287.258362,72.490265 
	C287.207123,72.065262 287.155914,71.640251 287.104675,71.215248 
	C287.892120,71.215248 288.679565,71.215248 289.851349,71.343781 
	C290.519714,71.655357 290.803741,71.838402 291.087769,72.021454 
z"/>
<path fill="#E4DA0B" opacity="1.000000" stroke="none" 
	d="
M264.592346,64.723000 
	C265.047791,64.229134 265.710754,63.909664 266.373749,63.590187 
	C266.537506,63.994778 266.701263,64.399368 266.865051,64.803955 
	C266.176666,64.835106 265.488281,64.866249 264.592346,64.723000 
z"/>
<path fill="#E4DA0B" opacity="1.000000" stroke="none" 
	d="
M280.440613,76.484451 
	C281.093262,76.185097 281.922852,76.097809 282.752472,76.010521 
	C282.648926,76.435455 282.545349,76.860382 282.441803,77.285316 
	C281.833710,77.089043 281.225647,76.892776 280.440613,76.484451 
z"/>
<path fill="#DCD50D" opacity="1.000000" stroke="none" 
	d="
M284.054810,64.341431 
	C284.083130,64.000984 284.505127,64.004097 284.715271,64.006790 
	C285.482635,65.037727 286.039856,66.065979 286.597046,67.094231 
	C286.354828,67.257111 286.112610,67.419983 285.870422,67.582855 
	C285.255768,66.615860 284.641144,65.648872 284.054810,64.341431 
z"/>
<path fill="#DCD50D" opacity="1.000000" stroke="none" 
	d="
M300.960205,80.332047 
	C301.474091,80.276337 302.021240,80.522781 302.786652,80.882141 
	C302.740784,81.446869 302.476685,81.898674 302.212616,82.350479 
	C301.806244,81.778389 301.399872,81.206299 300.960205,80.332047 
z"/>
<path fill="#DFD70D" opacity="1.000000" stroke="none" 
	d="
M295.737732,67.771347 
	C295.988556,68.089737 296.001862,68.274078 296.023041,68.735718 
	C295.375580,68.512627 294.710419,68.023666 294.087006,67.486282 
	C294.045319,67.450348 294.320007,67.047432 294.447540,66.815201 
	C294.798431,67.089233 295.149323,67.363274 295.737732,67.771347 
z"/>
<path fill="#E4DA0B" opacity="1.000000" stroke="none" 
	d="
M290.995117,79.995102 
	C291.059113,79.269623 291.128021,78.548973 291.196899,77.828323 
	C291.476776,77.880890 291.756653,77.933464 292.036530,77.986038 
	C291.873016,78.638382 291.709534,79.290718 291.277893,79.976067 
	C291.009766,80.009079 291.000000,79.999924 290.995117,79.995102 
z"/>
<path fill="#E4DA0B" opacity="1.000000" stroke="none" 
	d="
M293.991821,81.991791 
	C294.019867,81.336548 294.056152,80.689369 294.092407,80.042191 
	C294.361603,80.078224 294.630798,80.114250 294.900024,80.150284 
	C294.785400,80.750793 294.670807,81.351303 294.286255,81.983795 
	C294.016327,82.015785 294.000000,81.999847 293.991821,81.991791 
z"/>
<path fill="#E4DC0B" opacity="1.000000" stroke="none" 
	d="
M299.080963,85.886360 
	C299.021881,86.129875 299.024200,86.571381 299.023346,86.792358 
	C298.859741,86.121033 298.697021,85.228745 298.793091,84.151611 
	C299.081299,84.525467 299.110657,85.084152 299.080963,85.886360 
z"/>
<path fill="#DCD50D" opacity="1.000000" stroke="none" 
	d="
M296.001404,73.677399 
	C295.383026,73.481468 294.782959,72.984070 294.104309,72.194931 
	C294.690399,72.394104 295.355072,72.885017 296.001404,73.677399 
z"/>
<path fill="#E4DA0B" opacity="1.000000" stroke="none" 
	d="
M286.375885,75.160095 
	C285.974487,75.235405 285.547974,75.055901 285.121460,74.876404 
	C285.272461,74.531525 285.423492,74.186646 285.574524,73.841766 
	C285.833252,74.196266 286.091980,74.550774 286.375885,75.160095 
z"/>
<path fill="#DCD50D" opacity="1.000000" stroke="none" 
	d="
M292.723145,73.230148 
	C293.241058,73.829895 293.493683,74.612267 293.858948,75.686569 
	C293.467041,75.123260 292.962463,74.268021 292.723145,73.230148 
z"/>
<path fill="#DCD50D" opacity="1.000000" stroke="none" 
	d="
M292.991516,70.739594 
	C293.012695,70.989891 293.000275,71.478020 292.994171,71.721703 
	C292.988068,71.965385 292.503265,71.983849 292.246399,71.730995 
	C291.977509,71.310234 291.965485,71.142326 291.953430,70.974419 
	C292.134064,70.546188 292.314667,70.117966 292.495300,69.689735 
	C292.653625,69.956253 292.811951,70.222771 292.991516,70.739594 
z"/>
<path fill="#E4DA0B" opacity="1.000000" stroke="none" 
	d="
M274.260895,71.601997 
	C274.450958,71.940933 274.408447,72.328156 274.365936,72.715363 
	C274.095123,72.619942 273.824341,72.524521 273.553528,72.429100 
	C273.711792,72.169495 273.870056,71.909889 274.260895,71.601997 
z"/>
<path fill="#DCD50D" opacity="1.000000" stroke="none" 
	d="
M298.717529,73.240570 
	C298.997589,73.787132 299.008026,74.524223 298.759186,75.630859 
	C298.333160,76.000427 298.166473,76.000443 297.999756,76.000450 
	C298.149139,75.143990 298.298523,74.287537 298.717529,73.240570 
z"/>
<path fill="#DCD50D" opacity="1.000000" stroke="none" 
	d="
M282.753967,63.158009 
	C283.002869,63.025223 283.004517,63.522030 283.007080,63.770630 
	C282.837311,64.403587 282.664978,64.787956 282.492645,65.172318 
	C282.496765,64.545143 282.500916,63.917969 282.753967,63.158009 
z"/>
<path fill="#EAE309" opacity="1.000000" stroke="none" 
	d="
M291.624268,70.984375 
	C291.965485,71.142326 291.977509,71.310234 292.003815,71.730057 
	C292.018097,71.981964 291.551880,71.998535 291.319824,72.009995 
	C290.803741,71.838402 290.519714,71.655357 290.106049,71.253265 
	C290.415985,71.020927 290.855560,71.007629 291.624268,70.984375 
z"/>
<path fill="#534531" opacity="1.000000" stroke="none" 
	d="
M307.100830,84.056351 
	C307.344452,84.244347 307.244293,84.414734 307.026184,84.857132 
	C306.578247,84.943329 306.248291,84.757523 305.994110,84.283699 
	C306.298950,84.010033 306.528015,84.024391 307.100830,84.056351 
z"/>
<path fill="#534531" opacity="1.000000" stroke="none" 
	d="
M303.119171,86.643066 
	C302.683289,86.779808 302.307281,86.569672 301.951721,86.011810 
	C302.374481,85.874786 302.776764,86.085487 303.119171,86.643066 
z"/>
<path fill="#EAE309" opacity="1.000000" stroke="none" 
	d="
M297.999878,76.250076 
	C298.166473,76.000443 298.333160,76.000427 298.749878,76.000160 
	C298.999908,75.999901 299.000000,76.000000 299.004944,76.250275 
	C299.009857,76.500549 299.002441,76.997879 299.002441,76.997879 
	C299.002441,76.997879 299.000000,77.000000 298.999969,77.000023 
	C298.999939,77.000046 298.499969,76.999779 298.249725,76.999374 
	C297.999481,76.998978 298.000031,76.499710 297.999878,76.250076 
z"/>
<path fill="#DCD50D" opacity="1.000000" stroke="none" 
	d="
M282.862030,67.644798 
	C282.693115,67.739716 282.383881,67.629906 281.948181,67.300095 
	C282.174622,67.067787 282.474640,67.187782 282.862030,67.644798 
z"/>
<path fill="#E4DC0B" opacity="1.000000" stroke="none" 
	d="
M289.997437,83.338928 
	C290.153015,83.572990 290.307281,84.137787 290.237427,84.847466 
	C290.007568,84.551453 290.001831,84.110558 289.997437,83.338928 
z"/>
<path fill="#F6E806" opacity="1.000000" stroke="none" 
	d="
M273.794128,60.012234 
	C274.137878,60.902264 274.245148,61.792938 274.149353,62.859776 
	C272.101898,62.199272 270.257568,61.362606 268.200684,60.265694 
	C268.433441,60.005493 268.878723,60.005539 269.657867,60.005669 
	C270.894409,60.145874 271.797119,60.285988 272.892426,60.231133 
	C273.085052,60.036163 273.557587,60.012882 273.794128,60.012234 
z"/>
<path fill="#F6E806" opacity="1.000000" stroke="none" 
	d="
M277.840179,58.706291 
	C277.536255,59.302837 277.042084,59.679775 276.303650,59.946976 
	C276.040741,59.426819 276.022095,59.016399 276.006500,58.296585 
	C276.556366,58.153687 277.103149,58.320187 277.840179,58.706291 
z"/>
<path fill="#534531" opacity="1.000000" stroke="none" 
	d="
M305.132019,92.887260 
	C304.458160,94.148628 303.784332,95.410004 303.110474,96.671371 
	C302.798187,96.534752 302.485901,96.398132 302.173615,96.261513 
	C302.331543,95.437988 302.489441,94.614471 303.204346,93.509384 
	C304.026215,93.154907 304.291107,93.081985 304.698090,92.969681 
	C304.840210,92.930290 305.132019,92.887260 305.132019,92.887260 
z"/>
<path fill="#423B30" opacity="1.000000" stroke="none" 
	d="
M305.190857,92.700485 
	C305.132019,92.887260 304.840210,92.930290 304.497406,92.704575 
	C303.445709,91.964066 302.736786,91.449280 302.027893,90.934494 
	C301.618622,90.466034 301.209381,89.997574 300.622681,89.268555 
	C301.862061,89.594223 303.278900,90.180450 305.039642,91.012573 
	C305.597748,91.378777 305.745361,91.554962 305.865906,91.963150 
	C305.619110,92.145592 305.400543,92.270401 305.190857,92.700485 
z"/>
<path fill="#DCD50D" opacity="1.000000" stroke="none" 
	d="
M302.013184,91.229149 
	C302.736786,91.449280 303.445709,91.964066 304.355286,92.743958 
	C304.291107,93.081985 304.026215,93.154907 303.349487,93.237778 
	C302.673340,93.030289 302.409119,92.812843 302.055054,92.354156 
	C301.976349,91.916542 301.987396,91.720177 302.013184,91.229149 
z"/>
<path fill="#DCD50D" opacity="1.000000" stroke="none" 
	d="
M299.251984,76.977341 
	C299.002441,76.997879 299.009857,76.500549 299.006470,76.251907 
	C299.434753,76.165825 299.866364,76.328384 300.298004,76.490944 
	C300.032501,76.646233 299.767029,76.801521 299.251984,76.977341 
z"/>
</svg>